<svg width="100" height="100" xmlns="http://www.w3.org/2000/svg">
  <path fill="none" d="M-1-1h102v102H-1z"/>
  <g>
    <path stroke="null" fill="#fff" d="M99.567 12.05C99.567 5.644 94.356.433 87.95.433h-75.9C5.644.433.433 5.644.433 12.05v75.9c0 6.406 5.211 11.617 11.617 11.617h75.9c6.406 0 11.617-5.211 11.617-11.617v-75.9zm-7.745 0v34.078h-37.95V8.178H87.95a3.877 3.877 0 0 1 3.872 3.872zM12.05 8.178h34.078v37.95H8.178V12.05a3.877 3.877 0 0 1 3.872-3.872zM8.178 87.95V53.872h37.95v37.95H12.05a3.877 3.877 0 0 1-3.872-3.872zm79.772 3.872H53.872v-37.95h37.95V87.95a3.877 3.877 0 0 1-3.872 3.872zm-72.285-64.67a3.872 3.872 0 0 1 3.872-3.872h3.743v-3.743a3.872 3.872 0 1 1 7.745 0v3.743h3.743a3.872 3.872 0 1 1 0 7.745h-3.743v3.743a3.872 3.872 0 1 1-7.745 0v-3.743h-3.743a3.872 3.872 0 0 1-3.872-3.872zm49.06-2.647a3.871 3.871 0 0 1 0-5.475 3.871 3.871 0 0 1 5.475 0l2.647 2.646 2.648-2.646a3.871 3.871 0 0 1 5.475 0 3.871 3.871 0 0 1 0 5.475l-2.646 2.648L80.97 29.8a3.871 3.871 0 0 1 0 5.476 3.871 3.871 0 0 1-5.475 0l-2.648-2.647-2.647 2.647a3.871 3.871 0 0 1-5.476 0 3.871 3.871 0 0 1 0-5.476l2.647-2.647-2.647-2.648zM38.64 72.847a3.872 3.872 0 0 1-3.873 3.873h-15.23a3.872 3.872 0 1 1 0-7.745h15.23a3.872 3.872 0 0 1 3.873 3.872zm45.694 7.616a3.872 3.872 0 0 1-3.872 3.872H65.232a3.872 3.872 0 1 1 0-7.745h15.23a3.872 3.872 0 0 1 3.873 3.873zm0-15.231a3.872 3.872 0 0 1-3.872 3.872H65.232a3.872 3.872 0 1 1 0-7.745h15.23a3.872 3.872 0 0 1 3.873 3.873zm0 0"/>
  </g>
</svg>
