<svg height="60" width="60" viewBox="0 0 60 60" xmlns="http://www.w3.org/2000/svg">
  <path d="M46 29.69h-.32c-4.39 4.87-10.22 8.58-15.53 11.25l-.15-.3c-1.01-.51-2.06-1.06-3.14-1.64a51.062 51.062 0 0 1-12.54-9.31H14C14.04 14.92 17.09 3 30 3c12.79 0 15.96 11.92 16 26.69z" fill="#eef6ff"/>
  <path d="M15.999 45.74a1 1 0 0 1-.258-1.966c.186-.05 18.704-5.123 28.936-16.444a1 1 0 0 1 1.484 1.341C35.527 40.437 17.041 45.496 16.26 45.705a.995.995 0 0 1-.26.035z" fill="#2c4b75" opacity=".2"/>
  <path d="M29.983 8.391A9.687 9.687 0 1 1 20.3 18.08a9.688 9.688 0 0 1 9.684-9.688z" fill="#f9e2dc" fill-rule="evenodd"/>
  <path d="M29.983 8.391a9.685 9.685 0 0 0-9.198 6.67A5.993 5.993 0 0 0 30 10a5.992 5.992 0 0 0 9.189 5.076 9.688 9.688 0 0 0-9.206-6.685z" fill="#cfb0ab"/>
  <path d="M46 30c0 14.91-3.12 27-16 27-7.58 0-11.76-4.11-13.93-10.5l.19-.07a80.534 80.534 0 0 0 13.89-5.49c5.31-2.67 11.14-6.38 15.53-11.25H46z" fill="#ffbdd2"/>
  <path d="M26.86 39c1.08.58 2.13 1.13 3.14 1.64l.15.3a80.534 80.534 0 0 1-13.89 5.49l-.19.07C14.52 41.94 14 36.22 14 30v-.31h.32A51.062 51.062 0 0 0 26.86 39z" fill="#ffbdd2"/>
  <path d="M29.698 40.485c-.73-.372-1.482-.765-2.249-1.173a80.112 80.112 0 0 1-11.708 4.462.981.981 0 0 0-.384.21q.216.887.474 1.728a.97.97 0 0 0 .168.028.995.995 0 0 0 .26-.035 80.45 80.45 0 0 0 13.439-5.22z" fill="#750000" opacity=".2"/>
  <path d="M29.983 11a9.683 9.683 0 0 1 9.588 8.383 9.685 9.685 0 1 0-19.174 0A9.68 9.68 0 0 1 29.983 11zM30 52c-12.561 0-15.785-9.286-15.989-23.5q-.01.745-.011 1.5c0 14.912 3 27 16 27 12.875 0 16-12.088 16-27q0-.755-.012-1.5C45.778 42.714 42.44 52 30 52z" fill="#750000" fill-rule="evenodd" opacity=".2"/>
  <path d="M30 6c12.44 0 15.777 11.286 15.988 25.5Q46 30.755 46 30c0-14.912-3.125-27-16-27-13 0-16 12.088-16 27q0 .755.011 1.5C14.215 17.286 17.44 6 30 6z" fill="#fff" fill-rule="evenodd" opacity=".75"/>
  <path d="M16.263 47.433a1 1 0 0 1-.258-1.967c.185-.05 18.704-5.122 28.935-16.443a1 1 0 0 1 1.485 1.34C35.79 42.13 17.305 47.189 16.522 47.399a.995.995 0 0 1-.26.035z" fill="#6d6daa"/>
  <path d="M29.997 41.64a.989.989 0 0 1-.448-.108q-1.53-.77-3.162-1.653a51.697 51.697 0 0 1-12.81-9.514 1 1 0 0 1 1.482-1.344 50.705 50.705 0 0 0 12.282 9.1q1.6.869 3.106 1.625a1 1 0 0 1-.45 1.893z" fill="#6d6daa"/>
  <path d="M30 58c-15.237 0-17-15.98-17-28C13 4.902 22.702 2 30 2c15.237 0 17 15.98 17 28s-1.763 28-17 28zm0-54c-10.374 0-15 8.019-15 26s4.626 26 15 26 15-8.019 15-26S40.374 4 30 4z" fill="#6d6daa"/>
  <path d="M29.983 28.765A10.687 10.687 0 1 1 40.67 18.079a10.697 10.697 0 0 1-10.686 10.686zm0-19.374a8.687 8.687 0 1 0 8.686 8.688 8.696 8.696 0 0 0-8.686-8.688z" fill="#6d6daa"/>
  <path d="M27 20a1.052 1.052 0 0 1-.71-.29 1.154 1.154 0 0 1-.21-.33A.832.832 0 0 1 26 19a1.048 1.048 0 0 1 .29-.71 1.032 1.032 0 0 1 1.42 0A1.052 1.052 0 0 1 28 19a1 1 0 0 1-.08.38 1.154 1.154 0 0 1-.21.33A1.054 1.054 0 0 1 27 20zM33 20a1.39 1.39 0 0 1-.2-.02.649.649 0 0 1-.18-.06.762.762 0 0 1-.18-.09l-.15-.12A1.049 1.049 0 0 1 32 19a1 1 0 0 1 .08-.38 1.152 1.152 0 0 1 .21-.33l.15-.12a.762.762 0 0 1 .18-.09.632.632 0 0 1 .18-.06 1.017 1.017 0 0 1 .91.27A1 1 0 0 1 33 20z" fill="#6d6daa"/>
</svg>
