<?xml version="1.0" standalone="no"?>
<!DOCTYPE svg PUBLIC "-//W3C//DTD SVG 20010904//EN"
 "http://www.w3.org/TR/2001/REC-SVG-20010904/DTD/svg10.dtd">
<svg version="1.0" xmlns="http://www.w3.org/2000/svg"
 width="620.000000pt" height="620.000000pt" viewBox="0 0 620.000000 620.000000"
 preserveAspectRatio="xMidYMid meet">
<metadata>
Created by potrace 1.11, written by Peter Selinger 2001-2013
</metadata>
<g transform="translate(0.000000,620.000000) scale(0.100000,-0.100000)"
fill="#000000" stroke="none">
<path d="M5 4330 c-18 -30 109 -168 216 -236 45 -28 168 -82 203 -88 12 -2 39
-9 61 -15 58 -15 187 -38 280 -50 146 -18 169 -21 255 -26 47 -3 114 -7 150
-10 36 -2 126 -7 200 -10 74 -3 171 -8 215 -10 44 -3 136 -7 205 -10 233 -10
345 -15 400 -20 30 -2 102 -7 160 -10 151 -9 230 -15 270 -20 19 -2 64 -7 100
-10 62 -5 229 -27 315 -41 83 -13 266 -63 327 -90 104 -46 179 -102 243 -184
106 -137 162 -334 157 -555 -3 -122 -80 -505 -153 -759 -37 -132 -44 -172 -20
-128 6 11 17 26 24 34 40 42 149 246 251 470 38 85 112 313 126 387 13 70 15
227 5 306 -18 140 -75 307 -121 352 -8 8 -14 18 -14 21 0 16 -120 132 -180
174 -168 118 -475 230 -691 252 -19 2 -56 7 -84 10 -90 13 -109 15 -195 21
-47 3 -112 8 -145 10 -33 3 -116 7 -185 11 -69 3 -156 7 -195 9 -38 3 -135 7
-215 10 -80 4 -170 8 -200 10 -30 2 -107 7 -170 10 -63 3 -137 8 -165 10 -27
2 -88 7 -135 10 -47 3 -107 8 -135 10 -27 2 -86 7 -130 10 -44 3 -98 8 -120
10 -22 2 -74 7 -115 11 -41 3 -86 8 -100 9 -98 11 -148 17 -170 20 -14 3 -47
7 -75 10 -119 14 -277 45 -377 74 -38 11 -70 15 -73 11z"/>
<path d="M5160 3792 c0 -1 9 -19 19 -40 10 -20 19 -40 19 -45 1 -4 4 -26 7
-50 21 -139 29 -371 29 -777 -1 -601 -3 -629 -52 -709 l-29 -46 204 0 c111 0
203 3 203 6 0 3 -9 14 -21 25 -61 56 -65 98 -74 997 -5 489 -4 517 12 518 10
0 34 2 53 4 77 7 157 7 177 1 22 -7 30 -34 48 -146 11 -71 70 -220 86 -220 5
0 9 -5 9 -12 0 -16 67 -74 110 -94 45 -22 113 -25 169 -8 53 16 61 23 67 62 4
22 -1 37 -15 51 -18 18 -34 21 -101 21 l-81 0 2 119 c1 113 21 212 45 230 8 5
62 80 76 106 4 7 -156 10 -478 10 -266 0 -484 -1 -484 -3z"/>
<path d="M326 3778 c14 -25 245 -208 261 -208 4 0 16 -9 28 -20 11 -10 41 -30
66 -43 24 -13 54 -29 64 -35 23 -12 118 -56 125 -58 3 0 12 -3 20 -7 8 -3 38
-12 65 -21 46 -14 78 -19 206 -31 74 -6 408 -15 804 -21 204 -2 386 -6 405 -8
19 -2 80 -7 135 -11 274 -18 415 -55 589 -155 56 -32 58 -32 46 -9 -19 34
-164 177 -240 236 -76 58 -155 103 -225 128 -27 10 -54 22 -60 26 -14 10 -141
46 -195 55 -25 4 -47 8 -50 9 -18 4 -149 16 -220 20 -47 3 -119 7 -160 9 -41
3 -151 7 -245 11 -93 3 -197 8 -230 10 -33 3 -98 7 -145 10 -47 3 -116 8 -155
10 -65 5 -90 8 -205 19 -25 3 -76 8 -115 11 -38 4 -83 9 -100 11 -16 3 -46 7
-65 10 -19 2 -57 8 -85 14 -27 5 -66 12 -85 14 -55 9 -94 16 -108 21 -7 2 -40
7 -73 11 -53 6 -60 4 -53 -8z"/>
<path d="M4274 3773 c31 -104 41 -192 40 -393 0 -314 -31 -545 -106 -785 -56
-180 -179 -414 -281 -535 -61 -72 -147 -184 -143 -187 15 -15 207 129 317 238
192 192 413 713 454 1074 4 33 9 68 11 78 3 19 17 289 18 365 1 44 1 44 66 44
11 0 38 0 60 -1 l40 -1 -5 -657 c-2 -362 -7 -678 -10 -703 -10 -87 -17 -114
-36 -152 l-19 -38 185 0 c102 0 185 2 185 5 0 4 -7 19 -15 36 -38 73 -49 247
-49 774 0 353 8 646 19 710 13 74 19 92 37 118 l19 27 -396 0 c-373 0 -396 -1
-391 -17z"/>
<path d="M1050 3210 c0 -4 6 -21 13 -36 46 -106 157 -220 274 -282 84 -44 257
-94 368 -107 32 -4 68 -9 80 -11 11 -2 128 -6 260 -9 528 -10 871 -44 1094
-109 49 -14 81 -19 81 -12 0 13 -76 83 -155 144 -33 25 -62 49 -65 52 -22 24
-194 106 -265 126 -68 20 -67 20 -115 28 -19 4 -42 9 -50 11 -8 2 -40 7 -70
10 -30 3 -62 8 -70 10 -8 3 -49 7 -90 9 -41 3 -100 8 -130 10 -74 7 -169 14
-265 21 -44 3 -102 8 -130 10 -27 3 -84 7 -125 10 -41 4 -88 8 -105 10 -16 1
-59 6 -95 10 -104 11 -239 41 -315 70 -96 37 -125 45 -125 35z"/>
<path d="M1620 2615 c84 -220 259 -348 505 -370 39 -3 90 -8 115 -10 25 -2
106 -7 180 -9 74 -3 205 -8 290 -11 85 -3 175 -8 200 -10 222 -22 211 -18 395
-107 35 -17 29 -8 -59 79 -98 99 -145 137 -201 161 -39 17 -156 48 -220 58
-27 4 -57 9 -65 10 -8 2 -40 6 -70 9 -30 3 -66 8 -80 10 -14 3 -56 7 -95 10
-38 4 -81 8 -95 10 -14 2 -61 7 -105 10 -141 11 -207 20 -286 40 -93 24 -195
60 -284 100 -115 52 -139 56 -125 20z"/>
</g>
</svg>
